# xmcd
#
# Track frame offsets:
#	150
#	24001
#	48466
#	67420
#	101856
#	137662
#	158054
#	178461
#	206568
#	232409
#	261565
#
# Disc length: 3842 seconds
#
# Revision: 1
# Processed by: cddbd v1.5.2PL0 Copyright (c) Steve Scherf et al.
# Submitted via: EZCDAudioConverter 3.1.0.1
#
DISCID=ad0f000b
DTITLE=Lee, Burton, Garrett and Wilcox - Guitar Heroes
DYEAR=2015
DGENRE=Blues
TTITLE0=That's All Right (Mama)
TTITLE1=Susie Q
TTITLE2=Sleep Walk
TTITLE3=Leave My Woman Alone
TTITLE4=You're the One
TTITLE5=Comin' Home Baby
TTITLE6=Flip, Flop and Fly
TTITLE7=Only the Young
TTITLE8=Polk Salad Annie
TTITLE9=Bad Apple
TTITLE10=Country Boy
EXTD=
EXTT0=
EXTT1=
EXTT2=
EXTT3=
EXTT4=
EXTT5=
EXTT6=
EXTT7=
EXTT8=
EXTT9=
EXTT10=
PLAYORDER=
